<?xml version="1.0" encoding="iso-8859-1"?>
<!-- Generator: Adobe Illustrator 19.0.0, SVG Export Plug-In . SVG Version: 6.00 Build 0)  -->
<svg xmlns="http://www.w3.org/2000/svg" xmlns:xlink="http://www.w3.org/1999/xlink" version="1.1" id="Layer_1" x="0px" y="0px" viewBox="0 0 512 512" style="enable-background:new 0 0 512 512;" xml:space="preserve">
<path style="fill:#E4EAF8;" d="M440.378,92.171l-75.53-75.53c-5.154-5.156-12.147-8.051-19.438-8.051H81.897  c-10.121,0-18.327,8.205-18.327,18.327v458.166c0,10.121,8.206,18.327,18.327,18.327h348.206c10.121,0,18.327-8.206,18.327-18.327  V111.61C448.43,104.32,445.534,97.327,440.378,92.171z"/>
<rect x="339.043" y="13.172" style="fill:#D5DCED;" width="17.181" height="37.799"/>
<path d="M446.453,86.097l-75.53-75.53C364.108,3.752,355.047,0,345.41,0H81.897C67.055,0,54.98,12.075,54.98,26.917v458.166  C54.98,499.925,67.055,512,81.897,512h348.206c14.842,0,26.917-12.075,26.917-26.917V111.61  C457.02,101.973,453.268,92.913,446.453,86.097z M430.103,494.819H81.897c-5.369,0-9.736-4.367-9.736-9.736V26.917  c0-5.369,4.367-9.736,9.736-9.736H345.41c5.048,0,9.794,1.966,13.364,5.536l75.53,75.53c0.793,0.793,1.492,1.651,2.122,2.55H365.96  c-5.369,0-9.736-4.367-9.736-9.736V45.244c0-4.745-3.845-8.591-8.591-8.591s-8.591,3.845-8.591,8.591V91.06  c0,14.842,12.075,26.917,26.917,26.917h73.879v367.105C439.839,490.451,435.471,494.819,430.103,494.819z"/>
<path d="M286.207,165.381c-4.505-1.499-9.366,0.931-10.867,5.433l-54.98,164.94c-1.5,4.501,0.931,9.367,5.433,10.867  c0.901,0.3,1.818,0.443,2.718,0.443c3.598,0,6.948-2.276,8.148-5.876l54.98-164.94C293.14,171.746,290.708,166.88,286.207,165.381z"/>
<path d="M197.932,194.945c-3.356-3.354-8.794-3.354-12.149,0l-54.98,54.98c-3.355,3.356-3.355,8.794,0,12.149l54.98,54.98  c1.678,1.677,3.877,2.515,6.075,2.515c2.198,0,4.397-0.838,6.075-2.515c3.355-3.356,3.355-8.795,0-12.149L149.025,256l48.906-48.905  C201.286,203.739,201.286,198.301,197.932,194.945z"/>
<path d="M326.218,194.945c-3.356-3.354-8.794-3.354-12.149,0c-3.355,3.356-3.355,8.794,0,12.149l48.906,48.905l-48.906,48.905  c-3.355,3.356-3.355,8.795,0,12.149c1.678,1.677,3.877,2.515,6.075,2.515c2.198,0,4.397-0.838,6.075-2.515l54.98-54.98  c3.355-3.356,3.355-8.794,0-12.149L326.218,194.945z"/>
<g>
</g>
<g>
</g>
<g>
</g>
<g>
</g>
<g>
</g>
<g>
</g>
<g>
</g>
<g>
</g>
<g>
</g>
<g>
</g>
<g>
</g>
<g>
</g>
<g>
</g>
<g>
</g>
<g>
</g>
</svg>
